Normalized EMG Linear Envelopes
nRows=126
nColumns=4

endheader
time	 med_gas_r	  soleus_r	 tib_ant_r	
2.3619	  0.007318	  0.021234	  0.004967	
2.43347	  0.007162	  0.021334	  0.004980	
2.50504	  0.007272	  0.021129	  0.004961	
2.57661	  0.007348	  0.021472	  0.005021	
2.64819	  0.007335	  0.022090	  0.005156	
2.71976	  0.007285	  0.022836	  0.005240	
2.79133	  0.007301	  0.023567	  0.005229	
2.8629	  0.007438	  0.023612	  0.005167	
2.93448	  0.007630	  0.022959	  0.005119	
3.00605	  0.007580	  0.022576	  0.005101	
3.07762	  0.007121	  0.023705	  0.004988	
3.14919	  0.006685	  0.025601	  0.004807	
3.22077	  0.006435	  0.026222	  0.004560	
3.29234	  0.006434	  0.024325	  0.004354	
3.36391	  0.006605	  0.021728	  0.004295	
3.43548	  0.007063	  0.019698	  0.004426	
3.50706	  0.007700	  0.018510	  0.004567	
3.57863	  0.008204	  0.018328	  0.004616	
3.6502	  0.008628	  0.018524	  0.004570	
3.72177	  0.008742	  0.018720	  0.004648	
3.79335	  0.008678	  0.018593	  0.004998	
3.86492	  0.008649	  0.018876	  0.005466	
3.93649	  0.008499	  0.020851	  0.005575	
4.00806	  0.008350	  0.024810	  0.005159	
4.07964	  0.008390	  0.029070	  0.004766	
4.15121	  0.008333	  0.029107	  0.004562	
4.22278	  0.008110	  0.025784	  0.004480	
4.29435	  0.007848	  0.022465	  0.004528	
4.36593	  0.007809	  0.020407	  0.004642	
4.4375	  0.007757	  0.020000	  0.004652	
4.50907	  0.007097	  0.020493	  0.004564	
4.58065	  0.004834	  0.020112	  0.004403	
4.65222	 -0.000036	  0.018315	  0.004206	
4.72379	 -0.006485	  0.016166	  0.004193	
4.79536	 -0.008123	  0.016271	  0.004689	
4.86694	  0.009658	  0.022369	  0.006176	
4.93851	  0.068629	  0.040993	  0.009336	
5.01008	  0.185177	  0.079869	  0.014340	
5.08165	  0.342752	  0.133245	  0.019951	
5.15323	  0.497659	  0.180608	  0.024149	
5.2248	  0.613491	  0.217058	  0.026560	
5.29637	  0.663191	  0.249520	  0.029340	
5.36794	  0.666571	  0.279389	  0.034281	
5.43952	  0.653695	  0.301968	  0.041098	
5.51109	  0.648231	  0.313039	  0.047871	
5.58266	  0.659408	  0.316402	  0.055641	
5.65423	  0.680970	  0.313493	  0.065982	
5.72581	  0.708146	  0.326882	  0.077742	
5.79738	  0.731369	  0.360410	  0.088252	
5.86895	  0.747016	  0.402785	  0.091345	
5.94052	  0.762515	  0.449346	  0.090871	
6.0121	  0.767029	  0.501696	  0.087370	
6.08367	  0.765240	  0.545066	  0.082830	
6.15524	  0.750519	  0.556266	  0.086737	
6.22681	  0.724098	  0.551507	  0.094572	
6.29839	  0.702501	  0.548118	  0.095318	
6.36996	  0.686782	  0.533569	  0.090955	
6.44153	  0.699530	  0.529851	  0.085120	
6.5131	  0.737829	  0.552468	  0.081356	
6.58468	  0.784658	  0.591220	  0.077507	
6.65625	  0.805460	  0.621367	  0.073874	
6.72782	  0.787119	  0.631599	  0.068201	
6.7994	  0.757429	  0.623873	  0.062236	
6.87097	  0.738945	  0.606504	  0.059204	
6.94254	  0.730910	  0.594333	  0.060134	
7.01411	  0.738537	  0.609933	  0.064229	
7.08569	  0.745424	  0.651976	  0.067883	
7.15726	  0.754257	  0.683761	  0.068311	
7.22883	  0.762883	  0.661350	  0.065410	
7.3004	  0.742987	  0.618159	  0.062157	
7.37198	  0.695086	  0.574022	  0.058961	
7.44355	  0.662026	  0.554359	  0.057555	
7.51512	  0.661438	  0.566530	  0.058415	
7.58669	  0.678966	  0.607427	  0.059465	
7.65827	  0.700225	  0.661625	  0.060425	
7.72984	  0.725255	  0.709123	  0.062099	
7.80141	  0.753421	  0.730167	  0.062906	
7.87298	  0.771191	  0.737366	  0.061574	
7.94456	  0.777463	  0.741895	  0.060206	
8.01613	  0.758050	  0.752932	  0.061362	
8.0877	  0.728510	  0.768657	  0.063990	
8.15927	  0.714397	  0.794721	  0.066107	
8.23085	  0.715771	  0.813715	  0.066768	
8.30242	  0.713503	  0.792277	  0.067126	
8.37399	  0.719469	  0.739802	  0.068584	
8.44556	  0.748755	  0.694081	  0.068779	
8.51714	  0.785375	  0.671653	  0.068008	
8.58871	  0.803121	  0.675098	  0.066740	
8.66028	  0.809701	  0.713132	  0.067155	
8.73185	  0.820213	  0.775453	  0.067808	
8.80343	  0.807625	  0.821525	  0.067512	
8.875	  0.775057	  0.834363	  0.067591	
8.94657	  0.766312	  0.831687	  0.067677	
9.01815	  0.774381	  0.797065	  0.065551	
9.08972	  0.761775	  0.741495	  0.063138	
9.16129	  0.711604	  0.712054	  0.062779	
9.23286	  0.658200	  0.694913	  0.063213	
9.30444	  0.640083	  0.683449	  0.064172	
9.37601	  0.664282	  0.690546	  0.065597	
9.44758	  0.679998	  0.710309	  0.065236	
9.51915	  0.661180	  0.714431	  0.062603	
9.59073	  0.633211	  0.693455	  0.061606	
9.6623	  0.582789	  0.641651	  0.060067	
9.73387	  0.499535	  0.578983	  0.055302	
9.80544	  0.410994	  0.511335	  0.049497	
9.87702	  0.336619	  0.451118	  0.045032	
9.94859	  0.291602	  0.400813	  0.041294	
10.0202	  0.266973	  0.361051	  0.036629	
10.0917	  0.245361	  0.336847	  0.032731	
10.1633	  0.220330	  0.304035	  0.029233	
10.2349	  0.202109	  0.261659	  0.024742	
10.3065	  0.188440	  0.226201	  0.020333	
10.378	  0.171683	  0.197545	  0.018069	
10.4496	  0.151238	  0.172111	  0.018542	
10.5212	  0.122369	  0.144694	  0.020663	
10.5927	  0.090066	  0.120188	  0.022232	
10.6643	  0.059267	  0.103078	  0.023640	
10.7359	  0.038027	  0.090621	  0.025306	
10.8075	  0.024296	  0.079112	  0.025326	
10.879	  0.016598	  0.068593	  0.024658	
10.9506	  0.014362	  0.061349	  0.024097	
11.0222	  0.016262	  0.057141	  0.024905	
11.0937	  0.020153	  0.054047	  0.026185	
11.1653	  0.022693	  0.050952	  0.028299	
11.2369	  0.020381	  0.047051	  0.030895	
11.3085	  0.015845	  0.043719	  0.034004	
